<?xml version="1.0" encoding="UTF-8" standalone="no"?>
<!-- Created with Inkscape (http://www.inkscape.org/) -->

<svg
   xmlns:dc="http://purl.org/dc/elements/1.1/"
   xmlns:cc="http://creativecommons.org/ns#"
   xmlns:rdf="http://www.w3.org/1999/02/22-rdf-syntax-ns#"
   xmlns:svg="http://www.w3.org/2000/svg"
   xmlns="http://www.w3.org/2000/svg"
   xmlns:sodipodi="http://sodipodi.sourceforge.net/DTD/sodipodi-0.dtd"
   xmlns:inkscape="http://www.inkscape.org/namespaces/inkscape"
   width="24in"
   height="7.5in"
   viewBox="0 0 2160 675"
   id="svg2"
   version="1.1"
   inkscape:version="0.91 r13725"
   sodipodi:docname="clock.svg">
  <defs
     id="defs4" />
  <sodipodi:namedview
     id="base"
     pagecolor="#ffffff"
     bordercolor="#666666"
     borderopacity="1.0"
     inkscape:pageopacity="0.0"
     inkscape:pageshadow="2"
     inkscape:zoom="0.3304723"
     inkscape:cx="1375.0916"
     inkscape:cy="521.24275"
     inkscape:document-units="in"
     inkscape:current-layer="layer1"
     showgrid="false"
     units="in"
     inkscape:window-width="1280"
     inkscape:window-height="949"
     inkscape:window-x="-9"
     inkscape:window-y="-9"
     inkscape:window-maximized="1"
     inkscape:snap-intersection-paths="true"
     inkscape:object-paths="true" />
  <metadata
     id="metadata7">
    <rdf:RDF>
      <cc:Work
         rdf:about="">
        <dc:format>image/svg+xml</dc:format>
        <dc:type
           rdf:resource="http://purl.org/dc/dcmitype/StillImage" />
        <dc:title></dc:title>
      </cc:Work>
    </rdf:RDF>
  </metadata>
  <g
     inkscape:label="Layer 1"
     inkscape:groupmode="layer"
     id="layer1"
     transform="translate(0,-377.3622)">
    <text
       xml:space="preserve"
       style="color:#000000;font-style:normal;font-variant:normal;font-weight:normal;font-stretch:normal;font-size:40px;line-height:125%;font-family:Meiryo;-inkscape-font-specification:Meiryo;text-indent:0;text-align:start;text-decoration:none;text-decoration-line:none;letter-spacing:0px;word-spacing:0px;text-transform:none;direction:ltr;block-progression:tb;writing-mode:lr-tb;baseline-shift:baseline;text-anchor:start;display:inline;overflow:visible;visibility:visible;fill:#000000;fill-opacity:1;fill-rule:nonzero;stroke:none;stroke-width:1px;stroke-linecap:butt;stroke-linejoin:miter;stroke-opacity:1;marker:none;enable-background:accumulate"
       x="-130.23978"
       y="761.41718"
       id="text4135"
       sodipodi:linespacing="125%"><tspan
         sodipodi:role="line"
         id="tspan4137"
         x="-130.23978"
         y="761.41718" /></text>
    <path
       style="opacity:1;fill:#ffffff;fill-opacity:1;stroke:#000000;stroke-width:3.56885266;stroke-linejoin:miter;stroke-miterlimit:4;stroke-dasharray:none;stroke-opacity:1"
       d="M 54.189453,439.59698 A 571.98121,571.98124 0 0 0 603.39062,1010.7709 l 0,-83.61532 A 488.99714,488.99717 0 0 1 137.44141,439.59698 l -26.86914,0 0,16.4043 -28.976567,0 0,-16.4043 -27.40625,0 z"
       id="path4253"
       inkscape:connector-curvature="0" />
    <path
       style="opacity:1;fill:#ffffff;fill-opacity:1;stroke:#000000;stroke-width:3.56873679;stroke-linejoin:miter;stroke-miterlimit:4;stroke-dasharray:none;stroke-opacity:1"
       d="m 1462.0391,449.06376 a 571.94395,571.98136 0 0 0 570.8106,549.33397 l 0,-27.35155 15.9667,0 0,-28.82421 -15.9667,0 0,-27.09375 A 488.9653,488.99728 0 0 1 1544.9571,449.06376 l -82.918,0 z"
       id="path4253-50"
       inkscape:connector-curvature="0" />
    <path
       style="opacity:1;fill:#ffffff;fill-opacity:1;stroke:#000000;stroke-width:3.56873679;stroke-linejoin:miter;stroke-miterlimit:4;stroke-dasharray:none;stroke-opacity:1"
       d="m 1037.0148,951.15245 -15.9674,0 0,-27.0933 A 488.9653,488.99728 0 0 1 532.35192,435.34751 l -27.00412,0 0,16.0558 -28.98592,0 0,-16.0558 -27.2583,0 a 571.94395,571.98136 0 0 0 571.94382,571.98129 l 0,-27.35145 15.9674,0 0,-28.8249 z"
       id="path4253-5"
       inkscape:connector-curvature="0" />
    <path
       style="opacity:1;fill:#ffffff;fill-opacity:1;stroke:#000000;stroke-width:3.56873679;stroke-linejoin:miter;stroke-miterlimit:4;stroke-dasharray:none;stroke-opacity:1"
       d="m 1495.2641,946.89043 -15.9674,0 0,-27.0933 A 488.9653,488.99728 0 0 1 990.60117,431.08545 l -27.0041,0 0,16.0558 -28.986,0 0,-16.0558 -27.25826,0 a 571.94395,571.98136 0 0 0 571.94389,571.98125 l 0,-27.35137 15.9674,0 0,-28.8249 z"
       id="path4253-7"
       inkscape:connector-curvature="0" />
  </g>
</svg>
