<?xml version="1.0" encoding="UTF-8" standalone="no"?>
<!-- Created with Inkscape (http://www.inkscape.org/) -->

<svg
   xmlns:dc="http://purl.org/dc/elements/1.1/"
   xmlns:cc="http://creativecommons.org/ns#"
   xmlns:rdf="http://www.w3.org/1999/02/22-rdf-syntax-ns#"
   xmlns:svg="http://www.w3.org/2000/svg"
   xmlns="http://www.w3.org/2000/svg"
   xmlns:sodipodi="http://sodipodi.sourceforge.net/DTD/sodipodi-0.dtd"
   xmlns:inkscape="http://www.inkscape.org/namespaces/inkscape"
   width="7.5in"
   height="24in"
   viewBox="0 0 675 2160"
   id="svg2"
   version="1.1"
   inkscape:version="0.91 r13725"
   sodipodi:docname="clock.svg">
  <defs
     id="defs4" />
  <sodipodi:namedview
     id="base"
     pagecolor="#ffffff"
     bordercolor="#666666"
     borderopacity="1.0"
     inkscape:pageopacity="0.0"
     inkscape:pageshadow="2"
     inkscape:zoom="0.46735841"
     inkscape:cx="235.22387"
     inkscape:cy="675.58279"
     inkscape:document-units="in"
     inkscape:current-layer="layer1"
     showgrid="false"
     units="in"
     inkscape:window-width="1280"
     inkscape:window-height="949"
     inkscape:window-x="-9"
     inkscape:window-y="-9"
     inkscape:window-maximized="1"
     inkscape:snap-intersection-paths="true"
     inkscape:object-paths="true" />
  <metadata
     id="metadata7">
    <rdf:RDF>
      <cc:Work
         rdf:about="">
        <dc:format>image/svg+xml</dc:format>
        <dc:type
           rdf:resource="http://purl.org/dc/dcmitype/StillImage" />
        <dc:title></dc:title>
      </cc:Work>
    </rdf:RDF>
  </metadata>
  <g
     inkscape:label="Layer 1"
     inkscape:groupmode="layer"
     id="layer1"
     transform="translate(0,1107.6378)">
    <text
       xml:space="preserve"
       style="color:#000000;font-style:normal;font-variant:normal;font-weight:normal;font-stretch:normal;font-size:40px;line-height:125%;font-family:Meiryo;-inkscape-font-specification:Meiryo;text-indent:0;text-align:start;text-decoration:none;text-decoration-line:none;letter-spacing:0px;word-spacing:0px;text-transform:none;direction:ltr;block-progression:tb;writing-mode:lr-tb;baseline-shift:baseline;text-anchor:start;display:inline;overflow:visible;visibility:visible;fill:#000000;fill-opacity:1;fill-rule:nonzero;stroke:none;stroke-width:1px;stroke-linecap:butt;stroke-linejoin:miter;stroke-opacity:1;marker:none;enable-background:accumulate"
       x="-844.3692"
       y="29.131897"
       id="text4135"
       sodipodi:linespacing="125%"><tspan
         sodipodi:role="line"
         id="tspan4137"
         x="-844.3692"
         y="29.131897" /></text>
    <path
       style="opacity:1;fill:#ffffff;fill-opacity:1;stroke:#000000;stroke-width:3.49913883;stroke-linejoin:miter;stroke-miterlimit:4;stroke-dasharray:none;stroke-opacity:1"
       d="M 55.970549,986.027 A 560.80123,560.81506 0 0 0 615.98027,447.54725 l -81.98094,0 A 479.43918,479.451 0 0 1 55.970549,904.40023 l 0,26.34467 16.08366,0 0,28.41083 -16.08366,0 0,26.87127 z"
       id="path4253"
       inkscape:connector-curvature="0" />
    <path
       style="opacity:1;fill:#ffffff;fill-opacity:1;stroke:#000000;stroke-width:3.49889445;stroke-linejoin:miter;stroke-miterlimit:4;stroke-dasharray:none;stroke-opacity:1"
       d="M 65.437265,-421.82122 A 560.77259,560.76547 0 0 0 604.00628,-981.47548 l -26.81552,0 0,-15.6547 -28.25944,0 0,15.6547 -26.56276,0 A 479.41469,479.40861 0 0 1 65.437265,-503.1186 l 0,81.29738 z"
       id="path4253-50"
       inkscape:connector-curvature="0" />
    <path
       style="opacity:1;fill:#ffffff;fill-opacity:1;stroke:#000000;stroke-width:3.49910522;stroke-linejoin:miter;stroke-miterlimit:4;stroke-dasharray:none;stroke-opacity:1"
       d="m 557.44369,14.651841 0,15.656416 -26.56372,0 A 479.43892,479.44211 0 0 1 51.72112,509.4858 l 0,26.47816 15.74196,0 0,28.42137 -15.74196,0 0,26.7274 A 560.80093,560.80465 0 0 0 612.52201,30.308257 l -26.81686,0 0,-15.656416 -28.26146,0 z"
       id="path4253-5"
       inkscape:connector-curvature="0" />
    <path
       style="opacity:1;fill:#ffffff;fill-opacity:1;stroke:#000000;stroke-width:3.49910498;stroke-linejoin:miter;stroke-miterlimit:4;stroke-dasharray:none;stroke-opacity:1"
       d="m 553.18172,-443.59735 0,15.65641 -26.56372,0 A 479.43896,479.44201 0 0 1 47.45906,51.236568 l 0,26.478157 15.741961,0 0,28.421455 -15.741961,0 0,26.72737 a 560.80097,560.80453 0 0 0 560.8009,-560.80449 l -26.81677,0 0,-15.65641 -28.26147,0 z"
       id="path4253-7"
       inkscape:connector-curvature="0" />
  </g>
</svg>
